<svg xmlns="http://www.w3.org/2000/svg" viewBox="0 0 200 151">
<line x1="57" y1="38" x2="71" y2="20" stroke="black" stroke-width="3.5" stroke-linecap="round"/><line x1="71" y1="38" x2="57" y2="20" stroke="black" stroke-width="3.5" stroke-linecap="round"/><line x1="75" y1="38" x2="89" y2="20" stroke="black" stroke-width="3.5" stroke-linecap="round"/><line x1="89" y1="38" x2="75" y2="20" stroke="black" stroke-width="3.5" stroke-linecap="round"/><line x1="93" y1="38" x2="107" y2="20" stroke="black" stroke-width="3.5" stroke-linecap="round"/><line x1="107" y1="38" x2="93" y2="20" stroke="black" stroke-width="3.5" stroke-linecap="round"/><line x1="111" y1="38" x2="125" y2="20" stroke="black" stroke-width="3.5" stroke-linecap="round"/><line x1="125" y1="38" x2="111" y2="20" stroke="black" stroke-width="3.5" stroke-linecap="round"/><line x1="129" y1="38" x2="143" y2="20" stroke="black" stroke-width="3.5" stroke-linecap="round"/><line x1="143" y1="38" x2="129" y2="20" stroke="black" stroke-width="3.5" stroke-linecap="round"/>
<rect x="20" y="43" width="160" height="100" rx="4" fill="#93c5fd" stroke="#1e3a8a" stroke-width="5"/>
<path d="M72,87 L82,75 L128,75 L128,101 L72,101 Z" fill="#1e293b"/><circle cx="84" cy="107" r="7" fill="#1e293b"/><circle cx="102" cy="107" r="7" fill="#1e293b"/><circle cx="120" cy="107" r="7" fill="#1e293b"/>
</svg>