<svg xmlns="http://www.w3.org/2000/svg" viewBox="0 0 200 191">
<line x1="57" y1="38" x2="71" y2="20" stroke="black" stroke-width="3.5" stroke-linecap="round"/><line x1="71" y1="38" x2="57" y2="20" stroke="black" stroke-width="3.5" stroke-linecap="round"/><line x1="75" y1="38" x2="89" y2="20" stroke="black" stroke-width="3.5" stroke-linecap="round"/><line x1="89" y1="38" x2="75" y2="20" stroke="black" stroke-width="3.5" stroke-linecap="round"/><line x1="93" y1="38" x2="107" y2="20" stroke="black" stroke-width="3.5" stroke-linecap="round"/><line x1="107" y1="38" x2="93" y2="20" stroke="black" stroke-width="3.5" stroke-linecap="round"/><line x1="111" y1="38" x2="125" y2="20" stroke="black" stroke-width="3.5" stroke-linecap="round"/><line x1="125" y1="38" x2="111" y2="20" stroke="black" stroke-width="3.5" stroke-linecap="round"/><line x1="129" y1="38" x2="143" y2="20" stroke="black" stroke-width="3.5" stroke-linecap="round"/><line x1="143" y1="38" x2="129" y2="20" stroke="black" stroke-width="3.5" stroke-linecap="round"/>
<path d="M100,43 L170,113 100,183 30,113 Z" fill="#fca5a5" stroke="#7f1d1d" stroke-width="5"/>
<rect x="78" y="108" width="44" height="28" fill="#1e293b"/><rect x="78" y="95" width="12" height="15" fill="#1e293b"/><rect x="94" y="95" width="12" height="15" fill="#1e293b"/><rect x="110" y="95" width="12" height="15" fill="#1e293b"/><rect x="95" y="121" width="10" height="15" rx="5" fill="white" opacity="0.4"/>
</svg>