<svg xmlns="http://www.w3.org/2000/svg" viewBox="0 0 200 191">
<line x1="66" y1="38" x2="80" y2="20" stroke="black" stroke-width="3.5" stroke-linecap="round"/><line x1="80" y1="38" x2="66" y2="20" stroke="black" stroke-width="3.5" stroke-linecap="round"/><line x1="84" y1="38" x2="98" y2="20" stroke="black" stroke-width="3.5" stroke-linecap="round"/><line x1="98" y1="38" x2="84" y2="20" stroke="black" stroke-width="3.5" stroke-linecap="round"/><line x1="102" y1="38" x2="116" y2="20" stroke="black" stroke-width="3.5" stroke-linecap="round"/><line x1="116" y1="38" x2="102" y2="20" stroke="black" stroke-width="3.5" stroke-linecap="round"/><line x1="120" y1="38" x2="134" y2="20" stroke="black" stroke-width="3.5" stroke-linecap="round"/><line x1="134" y1="38" x2="120" y2="20" stroke="black" stroke-width="3.5" stroke-linecap="round"/>
<path d="M100,43 L170,113 100,183 30,113 Z" fill="#fca5a5" stroke="#7f1d1d" stroke-width="5"/>
<circle cx="100" cy="98" r="7" fill="#1e293b"/><path d="M91,107 L109,107 L108,127 L92,127 Z" fill="#1e293b"/><line x1="96" y1="127" x2="93" y2="139" stroke="#1e293b" stroke-width="4.5" stroke-linecap="round"/><line x1="104" y1="127" x2="107" y2="139" stroke="#1e293b" stroke-width="4.5" stroke-linecap="round"/><line x1="109" y1="109" x2="124" y2="95" stroke="#1e293b" stroke-width="3.5" stroke-linecap="round"/>
</svg>