<svg xmlns="http://www.w3.org/2000/svg" viewBox="0 0 200 191">
<line x1="66" y1="38" x2="80" y2="20" stroke="black" stroke-width="3.5" stroke-linecap="round"/><line x1="80" y1="38" x2="66" y2="20" stroke="black" stroke-width="3.5" stroke-linecap="round"/><line x1="84" y1="38" x2="98" y2="20" stroke="black" stroke-width="3.5" stroke-linecap="round"/><line x1="98" y1="38" x2="84" y2="20" stroke="black" stroke-width="3.5" stroke-linecap="round"/><line x1="102" y1="38" x2="116" y2="20" stroke="black" stroke-width="3.5" stroke-linecap="round"/><line x1="116" y1="38" x2="102" y2="20" stroke="black" stroke-width="3.5" stroke-linecap="round"/><line x1="120" y1="38" x2="134" y2="20" stroke="black" stroke-width="3.5" stroke-linecap="round"/><line x1="134" y1="38" x2="120" y2="20" stroke="black" stroke-width="3.5" stroke-linecap="round"/>
<path d="M100,43 L170,113 100,183 30,113 Z" fill="#fca5a5" stroke="#7f1d1d" stroke-width="5"/>
<rect x="82" y="108" width="36" height="28" fill="#1e293b"/><path d="M78,108 L100,91 L122,108 Z" fill="#1e293b"/><rect x="95" y="121" width="10" height="15" rx="2" fill="white" opacity="0.4"/><line x1="100" y1="91" x2="100" y2="75" stroke="#1e293b" stroke-width="2.5"/><path d="M100,75 L112,80 L100,85" fill="#1e293b"/>
</svg>